<svg xmlns="http://www.w3.org/2000/svg" viewBox="0 0 198.4 122.5" fill="none" role="img" aria-labelledby="title">
  <title id="title">Runtime workflow grid illustration</title>
  <style>
    .dash{stroke:#a595ba;stroke-width:.78;stroke-linecap:round;stroke-linejoin:round;stroke-dasharray:3.1 3.4}
    .grid{stroke:#e3dfda;stroke-width:.82;stroke-linecap:round;stroke-linejoin:round}
    .icon{stroke:#e3dfdc;stroke-width:.92;stroke-linecap:round;stroke-linejoin:round}
    .soft{stroke:#c4b5d4;stroke-width:.82;stroke-linecap:round;stroke-linejoin:round}
    .panel{fill:#2b233c;fill-opacity:.5;stroke:#e3dfda;stroke-width:.82}
    .star-box{fill:#2a2137;fill-opacity:.62;stroke:#e3dfdc;stroke-width:.86}
  </style>
  <path class="grid" d="M75.1 51.8H7.4c-1.5 0-2.8 1.3-2.8 2.8v60.7c0 1.5 1.3 2.8 2.8 2.8h134.8c1.5 0 2.8-1.3 2.8-2.8V54.6c0-1.5-1.3-2.8-2.8-2.8h-32.6"/>
  <path class="grid" d="M40.1 51.8v66.3M75.1 51.8v66.3M109.6 51.8v66.3M4.6 83.5H145"/>
  <rect class="panel" x="109.6" y="51.8" width="35.4" height="31.7"/>

  <path class="dash" d="M75.1 51.8h34.5"/>
  <path class="dash" d="M90.5 51.8V31.4c0-1.7 1.4-3.1 3.1-3.1h55.5"/>
  <path class="dash" d="M180.5 52v61.5c0 2.9-1.2 4.4-3.2 4.4H145"/>
  <path class="dash" d="M145 83.5h35.5"/>

  <path class="icon" d="M16.6 74v-1c0-2 1.5-3.5 3.4-3.5h3.9c1.9 0 3.5 1.6 3.5 3.5v1"/>
  <circle class="icon" cx="21.9" cy="64.3" r="2.7"/>

  <path class="icon" d="m54.3 64.2-3.6 3.4 3.3 3.2"/>
  <path class="icon" d="m61.5 64.4 3.3 3.2-3.4 3.3"/>
  <path class="icon" d="m56.7 71.2 2.2-7.1"/>

  <path class="soft" d="M89.5 67.7h5.6M92.3 64.9v5.6"/>
  <path class="soft" d="M159.3 67.7h6.2M162.4 64.9v5.6"/>
  <path class="soft" d="M54.8 100.6h5.7M57.6 97.7v6"/>

  <path class="soft" d="M133 63.2c-2.2-.1-4.8-1.8-5.7-2.5-.9.8-3.4 2.3-5.9 2.4v3.6c0 5.3 4 6.9 5.8 7.3 2.9-.9 5.8-3.1 5.8-7.3v-3.5Z"/>

  <path class="icon" d="M18.8 95.2h10.5M18.8 101.1h10.4M18.8 106.6h10.4"/>
  <circle class="icon" cx="15.3" cy="95.3" r=".8"/>
  <circle class="icon" cx="15.3" cy="101.1" r=".8"/>
  <circle class="icon" cx="15.3" cy="106.7" r=".8"/>

  <path class="icon" d="M92.2 93.9v7.1h6.7c.1-3.5-2.7-7.2-6.7-7.1Z"/>
  <path class="icon" d="M98.7 102.5c-.6 3-3.2 5.2-6.5 5.2-3.1 0-6.6-2.5-6.6-6.3.1-3.8 3.3-6.8 6.6-6.8"/>

  <path class="icon" d="M121.5 107.3v-5.2h3.5v5.2M129 107.3v-9h3.9v9M120 107.4h14.8"/>
  <path class="icon" d="M129 98.3h-3.9v9"/>
  <path class="icon" d="M132.9 94.3v13.1"/>

  <g transform="rotate(7 166.2 28.1)">
    <rect class="star-box" x="150.2" y="11.7" width="31.2" height="31.2" rx="3"/>
    <path class="soft" d="m166.2 20.2 2.4 4.8 5.3.8-3.9 3.8.9 5.3-4.7-2.5-4.7 2.5.9-5.3-3.8-3.8 5.3-.8 2.3-4.8Z"/>
  </g>
  <path class="icon" d="m186.3 4.3-.6 4.3M193.2 7.7l-4.3 2.9M194.1 14.4l-3.9-.4"/>
</svg>
