<svg xmlns="http://www.w3.org/2000/svg" viewBox="38 0 405 250" fill="none" role="img" aria-labelledby="title">
  <title id="title">Commands and plugins illustration</title>
  <defs>
    <filter id="soft-glow" x="-40%" y="-40%" width="180%" height="180%">
      <feGaussianBlur stdDeviation="7" result="blur"/>
      <feMerge><feMergeNode in="blur"/><feMergeNode in="SourceGraphic"/></feMerge>
    </filter>
    <radialGradient id="commands-glow" cx="48%" cy="42%" r="62%"><stop stop-color="#00b6ff" stop-opacity=".17"/><stop offset="1" stop-color="#00b6ff" stop-opacity="0"/></radialGradient>
  </defs>
  <style>
    svg{overflow:visible}
    .line{fill:none;stroke:#f4f7f5;stroke-width:2;stroke-linecap:round;stroke-linejoin:round}
    .thin{fill:none;stroke:#f4f7f5;stroke-width:1.25;stroke-linecap:round;stroke-linejoin:round;opacity:.78}
    .dash{fill:none;stroke:#f4f7f5;stroke-width:1.4;stroke-linecap:round;stroke-linejoin:round;stroke-dasharray:5 8;opacity:.72}
    .tile{fill:rgba(255,255,255,.035);stroke:#f4f7f5;stroke-width:1.8}
    .faint{opacity:.48}
    .accent{fill:none;stroke:#b9ff21;stroke-width:2;stroke-linecap:round;stroke-linejoin:round}
    .cyan{stroke:#22d8c3}
    .purple{stroke:#d9c1ff}
    .gold{stroke:#f6dd28}
    .node{fill:#070b08;stroke:#b9ff21;stroke-width:2.2;filter:url(#soft-glow)}
  </style>
  <g transform="translate(-13 -2)">
    <rect x="52" y="96" width="104" height="80" rx="7" class="line"/>
    <path d="M52 119h104" class="thin"/>
    <circle cx="68" cy="108" r="2.2" fill="#f4f7f5"/><circle cx="82" cy="108" r="2.2" fill="#f4f7f5"/><circle cx="96" cy="108" r="2.2" fill="#f4f7f5"/>
    <g transform="translate(78 128) scale(1.7916666666666667)" color="#f4f7f5" ><path d="M4.00004 17C4.00004 17 9.99999 12.5811 10 11C10 9.41884 4 5 4 5" stroke="currentColor" stroke-linecap="round" stroke-linejoin="round" stroke-width="2.25"/><path d="M12 19H20" stroke="currentColor" stroke-linecap="round" stroke-linejoin="round" stroke-width="2.25"/></g>
    <path d="M102 157h22" class="line cyan"/>
    <path d="M166 138h42" class="dash"/><circle cx="168" cy="138" r="4" class="thin"/><circle cx="210" cy="138" r="4" class="thin"/>
    <circle cx="248" cy="138" r="54" class="line"/>
    <circle cx="248" cy="138" r="32" class="thin" opacity=".55"/>
    <g transform="translate(225.5 115.5) scale(1.875)" color="#f4f7f5" ><path d="M15.5 2V6M8.5 6V2" stroke="currentColor" stroke-linecap="round" stroke-linejoin="round" stroke-width="1.7"/><path d="M6.00446 7.61331C5.93719 6.74273 6.63957 6 7.53014 6H16.4699C17.3604 6 18.0628 6.74273 17.9955 7.61331L17.8117 9.99197C17.6796 11.7019 17.1011 13.3498 16.132 14.7773L15.5312 15.6622C14.9638 16.4979 14.0077 17 12.9838 17H11.0162C9.99228 17 9.03617 16.4979 8.46881 15.6622L7.86803 14.7773C6.89885 13.3498 6.32041 11.7019 6.18827 9.99197L6.00446 7.61331Z" stroke="currentColor" stroke-width="1.7"/><path d="M12 17V22" stroke="currentColor" stroke-linecap="round" stroke-linejoin="round" stroke-width="1.7"/><path d="M11 9H13" stroke="currentColor" stroke-linecap="round" stroke-linejoin="round" stroke-width="1.7"/></g>
    <path d="M238 103v20M260 103v20" class="line cyan"/>
    <circle cx="314" cy="138" r="4" class="thin"/>
    <path d="M314 138h30" class="line"/>
    <path d="M346 76h28M346 76v124h28M346 138h28" class="dash"/>
    <path d="M374 76h22M374 138h22M374 200h22" class="line"/>
    <g>
    <rect x="396" y="46" width="58" height="58" rx="9" class="tile"/>
    <g transform="translate(409.5 59.5) scale(1.2916666666666667)" color="#f4f7f5" ><path d="M12.828 6.00096C12.9388 5.68791 12.999 5.35099 12.999 5C12.999 3.34315 11.6559 2 9.99904 2C8.34219 2 6.99904 3.34315 6.99904 5C6.99904 5.35099 7.05932 5.68791 7.17008 6.00096C4.88532 6.0093 3.66601 6.09039 2.87772 6.87868C2.08951 7.66689 2.00836 8.88603 2 11.1704C2.31251 11.06 2.64876 11 2.99904 11C4.6559 11 5.99904 12.3431 5.99904 14C5.99904 15.6569 4.6559 17 2.99904 17C2.64876 17 2.31251 16.94 2 16.8296C2.00836 19.114 2.08951 20.3331 2.87772 21.1213C3.66593 21.9095 4.88508 21.9907 7.16941 21.999C7.05908 21.6865 6.99904 21.3503 6.99904 21C6.99904 19.3431 8.34219 18 9.99904 18C11.6559 18 12.999 19.3431 12.999 21C12.999 21.3503 12.939 21.6865 12.8287 21.999C15.113 21.9907 16.3322 21.9095 17.1204 21.1213C17.9086 20.333 17.9897 19.1137 17.9981 16.829C18.3111 16.9397 18.648 17 18.999 17C20.6559 17 21.999 15.6569 21.999 14C21.999 12.3431 20.6559 11 18.999 11C18.648 11 18.3111 11.0603 17.9981 11.171C17.9897 8.88627 17.9086 7.66697 17.1204 6.87868C16.3321 6.09039 15.1128 6.0093 12.828 6.00096Z" stroke="currentColor" stroke-linejoin="round" stroke-width="1.65"/></g>
  </g>
    <g>
    <rect x="396" y="109" width="58" height="58" rx="9" class="tile"/>
    <g transform="translate(409.5 122.5) scale(1.2916666666666667)" color="#f4f7f5" ><path d="M8 3C7.5355 3 7.30325 3 7.10891 3.03078C6.03918 3.20021 5.20021 4.03918 5.03078 5.10891C5 5.30325 5 5.5355 5 6L5 10C5 11.1046 4.10457 12 3 12C4.10406 11.9982 5 12.8928 5 13.9968V18C5 18.4645 5 18.6968 5.03078 18.8911C5.20021 19.9608 6.03918 20.7998 7.10891 20.9692C7.30325 21 7.5355 21 8 21" stroke="currentColor" stroke-linecap="round" stroke-linejoin="round" stroke-width="1.65"/><path d="M16 3C16.4645 3 16.6968 3 16.8911 3.03078C17.9608 3.20021 18.7998 4.03918 18.9692 5.10891C19 5.30325 19 5.5355 19 6L19 10C19 11.1046 19.8954 12 21 12C19.8959 11.9982 19 12.8928 19 13.9968V18C19 18.4645 19 18.6968 18.9692 18.8911C18.7998 19.9608 17.9608 20.7998 16.8911 20.9692C16.6968 21 16.4645 21 16 21" stroke="currentColor" stroke-linecap="round" stroke-linejoin="round" stroke-width="1.65"/></g>
  </g>
    <g>
    <rect x="396" y="172" width="58" height="58" rx="9" class="tile"/>
    <g transform="translate(409.5 185.5) scale(1.2916666666666667)" color="#f4f7f5" ><path d="M21.3175 7.14139L20.8239 6.28479C20.4506 5.63696 20.264 5.31305 19.9464 5.18388C19.6288 5.05472 19.2696 5.15664 18.5513 5.36048L17.3311 5.70418C16.8725 5.80994 16.3913 5.74994 15.9726 5.53479L15.6357 5.34042C15.2766 5.11043 15.0004 4.77133 14.8475 4.37274L14.5136 3.37536C14.294 2.71534 14.1842 2.38533 13.9228 2.19657C13.6615 2.00781 13.3143 2.00781 12.6199 2.00781H11.5051C10.8108 2.00781 10.4636 2.00781 10.2022 2.19657C9.94085 2.38533 9.83106 2.71534 9.61149 3.37536L9.27753 4.37274C9.12465 4.77133 8.84845 5.11043 8.48937 5.34042L8.15249 5.53479C7.73374 5.74994 7.25259 5.80994 6.79398 5.70418L5.57375 5.36048C4.85541 5.15664 4.49625 5.05472 4.17867 5.18388C3.86109 5.31305 3.67445 5.63696 3.30115 6.28479L2.80757 7.14139C2.45766 7.74864 2.2827 8.05227 2.31666 8.37549C2.35061 8.69871 2.58483 8.95918 3.05326 9.48012L4.0843 10.6328C4.3363 10.9518 4.51521 11.5078 4.51521 12.0077C4.51521 12.5078 4.33636 13.0636 4.08433 13.3827L3.05326 14.5354C2.58483 15.0564 2.35062 15.3168 2.31666 15.6401C2.2827 15.9633 2.45766 16.2669 2.80757 16.8741L3.30114 17.7307C3.67443 18.3785 3.86109 18.7025 4.17867 18.8316C4.49625 18.9608 4.85542 18.8589 5.57377 18.655L6.79394 18.3113C7.25263 18.2055 7.73387 18.2656 8.15267 18.4808L8.4895 18.6752C8.84851 18.9052 9.12464 19.2442 9.2775 19.6428L9.61149 20.6403C9.83106 21.3003 9.94085 21.6303 10.2022 21.8191C10.4636 22.0078 10.8108 22.0078 11.5051 22.0078H12.6199C13.3143 22.0078 13.6615 22.0078 13.9228 21.8191C14.1842 21.6303 14.294 21.3003 14.5136 20.6403L14.8476 19.6428C15.0004 19.2442 15.2765 18.9052 15.6356 18.6752L15.9724 18.4808C16.3912 18.2656 16.8724 18.2055 17.3311 18.3113L18.5513 18.655C19.2696 18.8589 19.6288 18.9608 19.9464 18.8316C20.264 18.7025 20.4506 18.3785 20.8239 17.7307L21.3175 16.8741C21.6674 16.2669 21.8423 15.9633 21.8084 15.6401C21.7744 15.3168 21.5402 15.0564 21.0718 14.5354L20.0407 13.3827C19.7887 13.0636 19.6098 12.5078 19.6098 12.0077C19.6098 11.5078 19.7888 10.9518 20.0407 10.6328L21.0718 9.48012C21.5402 8.95918 21.7744 8.69871 21.8084 8.37549C21.8423 8.05227 21.6674 7.74864 21.3175 7.14139Z" stroke="currentColor" stroke-linecap="round" stroke-width="1.65"/><path d="M15.5195 12C15.5195 13.933 13.9525 15.5 12.0195 15.5C10.0865 15.5 8.51953 13.933 8.51953 12C8.51953 10.067 10.0865 8.5 12.0195 8.5C13.9525 8.5 15.5195 10.067 15.5195 12Z" stroke="currentColor" stroke-width="1.65"/></g>
  </g>
    <path d="M367 66l10 10-10 10M367 128l10 10-10 10M367 190l10 10-10 10" class="line"/>
  </g>
</svg>
